<svg xmlns="http://www.w3.org/2000/svg" version="1.1" viewBox="155.49 183.61 442.5 384.42">
 <path d="m418.92 418.92-5.918 5.918-20.719-20.719 60.676-60.676 25.16 5.918 29.598 5.918 90.277-102.12-71.035-69.551-102.12 90.277 5.918 29.598 5.918 25.16-60.676 59.195-60.676-60.676 5.918-25.16 5.918-29.598-102.11-88.797-69.555 69.559 90.277 102.12 29.598-5.918 25.16-5.918 60.676 60.676-20.719 20.719-5.918-5.918-115.43 115.43c-7.3984 7.3984-7.3984 20.719 0 28.117 7.3984 7.3984 20.719 7.3984 28.117 0l115.43-115.43-5.918-5.918 19.234-20.727 20.719 20.719-5.918 5.9219 115.43 115.43c7.3984 7.3984 20.719 7.3984 28.117 0 7.3984-7.3984 7.3984-20.719 0-28.117zm137.64-162.79-53.277 59.199-10.359-10.359 54.758-57.719zm-32.559-31.078 8.8789 8.8789-57.719 54.758-10.359-10.359zm-275.27 90.277-53.277-59.199 8.8789-8.8789 54.758 57.719zm26.641-26.641-56.238-54.758 8.8789-8.8789 59.199 53.277z"/>
</svg>